<svg
        width="12"
        height="12"
        viewBox="0 0 12 12"
        fill="none"
        xmlns="http://www.w3.org/2000/svg"
>
    <path
            fillRule="evenodd"
            clipRule="evenodd"
            d="M1.40878 0.17257C1.21352 -0.0226926 0.896932 -0.0226924 0.70167 0.17257L0.17257 0.70167C-0.0226926 0.896933 -0.0226924 1.21352 0.17257 1.40878L4.76385 6.00005L0.17257 10.5913C-0.0226921 10.7866 -0.0226919 11.1032 0.17257 11.2984L0.701671 11.8275C0.896933 12.0228 1.21352 12.0228 1.40878 11.8275L6.00005 7.23626L10.5913 11.8275C10.7866 12.0228 11.1032 12.0228 11.2984 11.8275L11.8275 11.2984C12.0228 11.1032 12.0228 10.7866 11.8275 10.5913L7.23626 6.00005L11.8275 1.40878C12.0228 1.21352 12.0228 0.896932 11.8275 0.70167L11.2984 0.17257C11.1032 -0.0226926 10.7866 -0.0226924 10.5913 0.17257L6.00005 4.76385L1.40878 0.17257Z"
            fill="#960000"
    />
</svg>
