<svg
        width="208"
        height="37"
        viewBox="0 0 208 37"
        fill="none"
        xmlns="http://www.w3.org/2000/svg"
>
    <path
            fillRule="evenodd"
            clipRule="evenodd"
            d="M36 15.9985C36 9.03923 32.0578 3.00529 26.291 0V12.0328H9.70901V0C3.94073 3.00529 0 9.03923 0 15.9985C0 22.9608 3.94073 28.9962 9.70901 32V19.9672H26.291V32C32.0578 28.9962 36 22.9593 36 15.9985Z"
            fill="#00664F"
    />
    <path
            fillRule="evenodd"
            clipRule="evenodd"
            d="M42 1H50.859V11.1302H59.1381V1H68V30H59.1381V18.5709H50.859V30H42V1Z"
            fill="#00664F"
    />
    <path
            fillRule="evenodd"
            clipRule="evenodd"
            d="M91.0145 16.1849C91.0145 12.153 91.0952 8 80.9297 8C75.888 8 70.2304 8.96794 69.9855 14.8549H77.5275C77.57 13.9418 78.0613 12.6824 80.5616 12.6824C81.8711 12.6824 83.2247 13.209 83.2247 14.6327C83.2247 15.9729 82.1175 16.2974 81.0118 16.5008C76.8705 17.2726 69 17.0288 69 23.6889C69 28.0757 72.4022 30 76.5039 30C79.1259 30 81.6248 29.436 83.3464 27.5145H83.43C83.3875 28.0367 83.5121 28.8849 83.716 29.449H92C91.0952 28.1161 91.0145 26.3403 91.0145 24.768V16.1849ZM83.2247 21.9868C83.1015 24.1635 81.6688 25.2526 79.8225 25.2526C78.3487 25.2526 77.2811 24.2833 77.2811 23.3168C77.2811 21.906 78.2255 21.4631 80.0278 21.0607C81.1335 20.8197 82.2407 20.5356 83.2247 20.0538V21.9868Z"
            fill="#00664F"
    />
    <path
            fillRule="evenodd"
            clipRule="evenodd"
            d="M106.909 16.4807C106.824 15.6321 106.533 14.9465 105.989 14.515C105.49 14.0719 104.781 13.8309 103.905 13.8309C100.736 13.8309 100.275 16.4865 100.275 19.0224C100.275 21.5568 100.736 24.1691 103.905 24.1691C105.697 24.1691 106.949 22.7605 107.116 21.1137H115C114.206 26.8075 109.578 30 103.738 30C97.2237 30 92 25.6384 92 19.0166C92 12.402 97.2237 8 103.738 8C109.409 8 114.249 10.7062 114.749 16.4807H106.909Z"
            fill="#00664F"
    />
    <path
            fillRule="evenodd"
            clipRule="evenodd"
            d="M115 1H123.246V15.016L128.484 8.93525H137.794L130.104 16.8807L139 30H129.107L124.701 22.3511L123.246 23.896V30H115V1Z"
            fill="#00664F"
    />
    <path
            fillRule="evenodd"
            clipRule="evenodd"
            d="M139 8.55178H146.794V11.2678H146.874C148.376 9.11834 150.529 8 153.737 8C157.531 8 161 10.358 161 15.2855V30H152.921V18.7559C152.921 16.2781 152.635 14.5414 150.284 14.5414C148.905 14.5414 147.078 15.2426 147.078 18.6746V30H139V8.55178Z"
            fill="#00664F"
    />
    <path
            fillRule="evenodd"
            clipRule="evenodd"
            d="M185 20.7649C185 12.6089 181.403 8 173.076 8C166.446 8 162 12.9306 162 19.0339C162 26.0619 167.055 30 173.763 30C178.532 30 182.939 27.9098 184.557 23.412H177.077C176.436 24.4131 175.02 24.9064 173.727 24.9064C171.219 24.9064 169.845 23.1812 169.641 20.7649H185ZM169.685 16.622C170.046 14.3486 171.42 13.0907 173.802 13.0907C175.865 13.0907 177.318 14.6731 177.318 16.622H169.685Z"
            fill="#00664F"
    />
    <path
            fillRule="evenodd"
            clipRule="evenodd"
            d="M200.955 28.5221C200.299 30.3959 199.563 32.7989 198.293 34.3913C196.164 37.0408 192.888 37 189.733 37H186.048V30.5577H187.93C188.75 30.5577 189.814 30.6408 190.39 30.355C190.881 30.1115 191.166 29.7032 191.166 28.7671C191.166 27.7464 188.054 19.9641 187.604 18.7406L184 9H192.681L196.082 21.1452H196.164L199.604 9H208L200.955 28.5221Z"
            fill="#00664F"
    />
</svg>
